#!OML:ASF H:\IndianDance\Patient Classification 1\Patient 1\Session 1\dancer.ASF
:FULLY-SPECIFIED
:DEGREES
2279
root -16.1074 15.4607 3.96499 -164.929 59.4691 -170.884
lowerback 2.52046 4.56749 -0.834482
upperback 3.50669 6.20373 -1.20203
thorax 2.24248 3.13933 -0.796643
lowerneck -16.2888 -1.33976 0.641209
upperneck 40.6949 -1.79644 6.79537
head 17.9891 1.32383 3.03182
rclavicle 2.34566e-014 1.27222e-014
rhumerus -37.1736 -17.7037 -79.9606
rradius 29.02
rwrist 3.61224
rhand -20.227 6.33568
rfingers 7.12502
rthumb 6.12062 -23.5559
lclavicle 2.34566e-014 1.27222e-014
lhumerus -31.2117 5.70807 76.6064
lradius 25.5043
lwrist 0.301687
lhand -25.3454 -1066.71
lfingers 7.12502
lthumb 1.17795 43.2641
rfemur -14.8164 -4.96375 28.4611
rtibia 51.591
rfoot 1.14342 10.4596
rtoes -0.661221
lfemur -32.2479 2.3435 -19.7061
ltibia 27.4787
lfoot -3.74101 -4.40389
ltoes 10.5234
2280
root -16.0572 15.4694 3.93413 -165.091 59.8709 -171.16
lowerback 2.77784 4.58132 -1.09091
upperback 3.56123 6.22287 -1.30444
thorax 2.1402 3.14751 -0.781243
lowerneck -16.2566 -1.25406 0.697899
upperneck 40.6747 -1.65366 6.70232
head 17.9568 1.36984 3.00002
rclavicle -3.47873e-014 -2.3059e-014
rhumerus -37.1649 -17.3211 -79.9922
rradius 29.2316
rwrist 3.37891
rhand -20.1801 6.07175
rfingers 7.12502
rthumb 6.16595 -23.8185
lclavicle -3.47873e-014 -2.3059e-014
lhumerus -31.3106 5.97704 76.5223
lradius 25.3301
lwrist 0.125524
lhand -25.2326 -1066.52
lfingers 7.12502
lthumb 1.2869 43.4521
rfemur -16.1063 -4.92477 28.0628
rtibia 53.2357
rfoot 1.23866 10.1033
rtoes -1.34508
lfemur -32.0194 2.46318 -19.9195
ltibia 27.4399
lfoot -3.67643 -4.22137
ltoes 11.2275
2281
root -16.0082 15.4781 3.90479 -165.32 60.2826 -171.497
lowerback 3.05084 4.59871 -1.3881
upperback 3.61333 6.24477 -1.41591
thorax 2.02364 3.15666 -0.754621
lowerneck -16.207 -1.1709 0.761327
upperneck 40.66 -1.51772 6.62074
head 17.9243 1.41684 2.97153
rclavicle 1.01977e-013 -6.36111e-015
rhumerus -37.1736 -16.9287 -80.0341
rradius 29.5036
rwrist 3.18153
rhand -20.0311 5.89975
rfingers 7.12502
rthumb 6.30975 -23.9863
lclavicle 1.01977e-013 -6.36111e-015
lhumerus -31.4401 6.13506 76.4795
lradius 25.2616
lwrist 0.010851
lhand -25.0894 -1066.43
lfingers 7.12502
lthumb 1.42518 43.5433
rfemur -17.3844 -4.84453 27.6661
rtibia 54.7708
rfoot 0.985577 9.38233
rtoes -2.01167
lfemur -31.7681 2.577 -20.1538
ltibia 27.3796
lfoot -3.63546 -4.01525
ltoes 11.8419
2282
root -15.9601 15.4866 3.87706 -165.609 60.6916 -171.885
lowerback 3.3407 4.61562 -1.71662
upperback 3.66844 6.26393 -1.5326
thorax 1.8983 3.16435 -0.717822
lowerneck -16.154 -1.08957 0.828813
upperneck 40.6504 -1.38826 6.54937
head 17.8948 1.46395 2.9464
rclavicle -1.62805e-013 4.21423e-014
rhumerus -37.1935 -16.5484 -80.0811
rradius 29.8232
rwrist 3.0371
rhand -19.8594 5.84813
rfingers 7.12502
rthumb 6.4755 -24.0329
lclavicle -1.62805e-013 4.21423e-014
lhumerus -31.5811 6.21402 76.4731
lradius 25.2823
lwrist -0.0533822
lhand -24.9363 -1066.42
lfingers 7.12502
lthumb 1.57306 43.5573
rfemur -18.6419 -4.74014 27.2804
rtibia 56.1824
rfoot 0.496987 8.2877
rtoes -2.54838
lfemur -31.4948 2.68425 -20.4002
ltibia 27.3032
lfoot -3.62621 -3.79443
ltoes 12.3448
2283
root -15.9127 15.4949 3.85099 -165.949 61.0882 -172.317
lowerback 3.64195 4.62943 -2.07148
upperback 3.72643 6.27659 -1.65269
thorax 1.7675 3.16879 -0.67115
lowerneck -16.1053 -1.01032 0.891428
upperneck 40.6487 -1.26545 6.49443
head 17.8723 1.51063 2.92949
rclavicle -1.37161e-013 2.22639e-014
rhumerus -37.2233 -16.1865 -80.1336
rradius 30.184
rwrist 2.91826
rhand -19.6849 5.90064
rfingers 7.12502
rthumb 6.64405 -23.9751
lclavicle -1.37161e-013 2.22639e-014
lhumerus -31.7321 6.22268 76.4997
lradius 25.39
lwrist -0.0658036
lhand -24.7586 -1066.51
lfingers 7.12502
lthumb 1.74471 43.4618
rfemur -19.8816 -4.6232 26.9089
rtibia 57.4561
rfoot -0.108022 6.8576
rtoes -2.86569
lfemur -31.2096 2.78293 -20.6547
ltibia 27.2187
lfoot -3.65529 -3.57001
ltoes 12.7323
2284
root -15.8658 15.5028 3.82653 -166.307 61.4603 -172.761
lowerback 3.95133 4.63606 -2.43486
upperback 3.78608 6.2772 -1.77057
thorax 1.63314 3.16746 -0.618153
lowerneck -16.0643 -0.933966 0.941354
upperneck 40.6538 -1.15075 6.46108
head 17.857 1.5556 2.92432
rclavicle -4.85035e-014 8.74653e-015
rhumerus -37.2588 -15.8484 -80.1913
rradius 30.5791
rwrist 2.803
rhand -19.516 6.03497
rfingers 7.12502
rthumb 6.80707 -23.8356
lclavicle -4.85035e-014 8.74653e-015
lhumerus -31.8892 6.18409 76.5511
lradius 25.5762
lwrist -0.0339688
lhand -24.5575 -1066.71
lfingers 7.12502
lthumb 1.93891 43.2612
rfemur -21.1016 -4.49857 26.5683
rtibia 58.574
rfoot -0.759225 5.14637
rtoes -2.97627
lfemur -30.925 2.86913 -20.899
ltibia 27.1372
lfoot -3.72578 -3.355
ltoes 13.0181
2285
root -15.8195 15.5105 3.80373 -166.632 61.7968 -173.172
lowerback 4.2567 4.63537 -2.78602
upperback 3.84482 6.26583 -1.87833
thorax 1.50071 3.16049 -0.560953
lowerneck -16.0293 -0.861981 0.978811
upperneck 40.6603 -1.04505 6.44352
head 17.8451 1.59734 2.92739
rclavicle -6.48038e-014 3.26007e-014
rhumerus -37.3017 -15.5384 -80.2504
rradius 31.0107
rwrist 2.6659
rhand -19.3677 6.21468
rfingers 7.12502
rthumb 6.95021 -23.6512
lclavicle -6.48038e-014 3.26007e-014
lhumerus -32.0442 6.1141 76.6282
lradius 25.8316
lwrist 0.037141
lhand -24.3438 -1067.01
lfingers 7.12502
lthumb 2.14536 42.963
rfemur -22.3071 -4.37314 26.2817
rtibia 59.5181
rfoot -1.38487 3.26915
rtoes -2.7544
lfemur -30.6625 2.93896 -21.1102
ltibia 27.0707
lfoot -3.83323 -3.15558
ltoes 13.2226
2286
root -15.7736 15.518 3.78239 -166.871 62.0912 -173.503
lowerback 4.5458 4.6295 -3.10022
upperback 3.9006 6.24631 -1.97127
thorax 1.37691 3.14997 -0.507182
lowerneck -16.0043 -0.797618 1.00137
upperneck 40.6668 -0.954269 6.44457
head 17.8372 1.63347 2.93935
rclavicle 5.82439e-014 -2.46493e-014
rhumerus -37.3496 -15.2521 -80.3147
rradius 31.47
rwrist 2.46608
rhand -19.27 6.44131
rfingers 7.12502
rthumb 7.04452 -23.4215
lclavicle 5.82439e-014 -2.46493e-014
lhumerus -32.2031 6.00033 76.733
lradius 26.166
lwrist 0.166805
lhand -24.1299 -1067.38
lfingers 7.12502
lthumb 2.35189 42.5876
rfemur -23.4995 -4.24446 26.0699
rtibia 60.271
rfoot -1.99759 1.33281
rtoes -2.37281
lfemur -30.4415 2.98968 -21.266
ltibia 27.0322
lfoot -3.97524 -2.9675
ltoes 13.3399
2287
root -15.728 15.5254 3.76243 -166.982 62.3393 -173.718
lowerback 4.80676 4.61576 -3.36353
upperback 3.95339 6.21623 -2.04349
thorax 1.26902 3.13456 -0.457098
lowerneck -15.9956 -0.736943 1.01085
upperneck 40.6707 -0.871636 6.45696
head 17.8328 1.66553 2.95758
rclavicle 2.70347e-014 1.11319e-014
rhumerus -37.3967 -14.9851 -80.3861
rradius 31.9608
rwrist 2.19335
rhand -19.2168 6.67005
rfingers 7.12502
rthumb 7.09592 -23.191
lclavicle 2.70347e-014 1.11319e-014
lhumerus -32.36 5.85804 76.8655
lradius 26.5752
lwrist 0.353479
lhand -23.9256 -1067.78
lfingers 7.12502
lthumb 2.54924 42.1796
rfemur -24.677 -4.10554 25.9461
rtibia 60.8186
rfoot -2.60977 -0.577265
rtoes -1.88181
lfemur -30.2785 3.01657 -21.3496
ltibia 27.032
lfoot -4.14676 -2.78675
ltoes 13.3905
2288
root -15.6828 15.5328 3.74352 -166.935 62.5415 -173.792
lowerback 5.02969 4.59323 -3.56295
upperback 4.00032 6.17553 -2.09343
thorax 1.18059 3.1142 -0.415309
lowerneck -15.9969 -0.678909 1.01105
upperneck 40.668 -0.794503 6.47449
head 17.8275 1.69409 2.97845
rclavicle 2.0276e-014 4.77083e-015
rhumerus -37.4438 -14.7194 -80.4706
rradius 32.4853
rwrist 1.84101
rhand -19.2142 6.86794
rfingers 7.12502
rthumb 7.09841 -22.993
lclavicle 2.0276e-014 4.77083e-015
lhumerus -32.51 5.6987 77.0201
lradius 27.0488
lwrist 0.598873
lhand -23.7368 -1068.22
lfingers 7.12502
lthumb 2.73151 41.7472
rfemur -25.8402 -3.95126 25.916
rtibia 61.1523
rfoot -3.24614 -2.37902
rtoes -1.35973
lfemur -30.1854 3.01787 -21.3519
ltibia 27.0752
lfoot -4.33697 -2.60964
ltoes 13.3682
2289
root -15.6377 15.5403 3.72548 -166.725 62.6992 -173.721
lowerback 5.21199 4.56334 -3.69767
upperback 4.04021 6.12687 -2.1223
thorax 1.11183 3.0901 -0.383363
lowerneck -16.0057 -0.622904 1.00686
upperneck 40.6584 -0.722316 6.4951
head 17.8205 1.71997 3.00019
rclavicle 3.26007e-014 -2.46493e-014
rhumerus -37.4914 -14.4628 -80.5693
rradius 33.0375
rwrist 1.42455
rhand -19.2675 7.02727
rfingers 7.12502
rthumb 7.04691 -22.8354
lclavicle 3.26007e-014 -2.46493e-014
lhumerus -32.6769 5.50177 77.1968
lradius 27.6063
lwrist 0.925605
lhand -23.571 -1068.66
lfingers 7.12502
lthumb 2.89166 41.303
rfemur -26.981 -3.77624 25.9755
rtibia 61.269
rfoot -3.91611 -4.01177
rtoes -0.92596
lfemur -30.1611 2.99473 -21.2742
ltibia 27.1603
lfoot -4.53325 -2.43484
ltoes 13.3283
2290
root -15.593 15.5478 3.70797 -166.367 62.8181 -173.523
lowerback 5.35166 4.51205 -3.77852
upperback 4.07341 6.05172 -2.12748
thorax 1.0631 3.05263 -0.351571
lowerneck -16.0188 -0.55306 0.990699
upperneck 40.644 -0.624595 6.50963
head 17.8103 1.75248 3.02547
rclavicle 4.09496e-014 -1.43125e-014
rhumerus -37.5236 -14.1549 -80.6975
rradius 33.6074
rwrist 0.946117
rhand -19.3772 7.14118
rfingers 7.12502
rthumb 6.94107 -22.725
lclavicle 4.09496e-014 -1.43125e-014
lhumerus -32.8614 5.33697 77.3814
lradius 28.2276
lwrist 1.31325
lhand -23.467 -1069.05
lfingers 7.12502
lthumb 2.99209 40.9113
rfemur -28.0949 -3.57595 26.1079
rtibia 61.1711
rfoot -4.61324 -5.44065
rtoes -0.616835
lfemur -30.2039 2.94728 -21.1278
ltibia 27.2861
lfoot -4.72586 -2.25616
ltoes 13.2679
2291
root -15.5484 15.5554 3.69073 -165.904 62.9061 -173.238
lowerback 5.45304 4.44821 -3.81759
upperback 4.09979 5.96192 -2.11871
thorax 1.03145 3.00777 -0.324245
lowerneck -16.0346 -0.476924 0.967914
upperneck 40.6284 -0.514697 6.52151
head 17.7992 1.78818 3.05284
rclavicle 3.97569e-015 -3.97569e-015
rhumerus -37.546 -13.8127 -80.8519
rradius 34.1861
rwrist 0.425752
rhand -19.5386 7.21251
rfingers 7.12502
rthumb 6.78523 -22.6588
lclavicle 3.97569e-015 -3.97569e-015
lhumerus -33.0541 5.18163 77.5699
lradius 28.8933
lwrist 1.74967
lhand -23.4044 -1069.43
lfingers 7.12502
lthumb 3.05259 40.5313
rfemur -29.1734 -3.34804 26.2858
rtibia 60.8676
rfoot -5.31569 -6.64907
rtoes -0.455379
lfemur -30.3015 2.87371 -20.9343
ltibia 27.4463
lfoot -4.90526 -2.06418
ltoes 13.2156
